<svg width="50" height="50" viewBox="0 0 50 50" fill="none" xmlns="http://www.w3.org/2000/svg">
<path d="M20.8334 22.9166H14.7938L14.7959 22.8979C15.0679 21.5659 15.6003 20.3007 16.3625 19.175C17.4968 17.5038 19.0878 16.1941 20.9459 15.4021C21.575 15.1354 22.2313 14.9312 22.9 14.7958C24.2873 14.5145 25.7169 14.5145 27.1042 14.7958C29.0979 15.2043 30.9273 16.1904 32.3646 17.6312L35.3146 14.6896C33.985 13.3596 32.412 12.298 30.6813 11.5625C29.7986 11.1888 28.8809 10.904 27.9417 10.7125C26.0038 10.3187 24.0066 10.3187 22.0688 10.7125C21.1289 10.9048 20.2105 11.1903 19.3271 11.5646C16.724 12.6689 14.4957 14.5022 12.9104 16.8437C11.8435 18.4226 11.0974 20.1958 10.7146 22.0625C10.6563 22.3437 10.625 22.6312 10.5834 22.9166H4.16669L12.5 31.25L20.8334 22.9166ZM29.1667 27.0833H35.2063L35.2042 27.1C34.6599 29.7703 33.0859 32.1189 30.8229 33.6375C29.6976 34.4003 28.4322 34.9328 27.1 35.2041C25.7134 35.4854 24.2845 35.4854 22.8979 35.2041C21.5659 34.9321 20.3008 34.3997 19.175 33.6375C18.6221 33.2635 18.106 32.838 17.6334 32.3666L14.6875 35.3125C16.0177 36.642 17.5915 37.703 19.3229 38.4375C20.2063 38.8125 21.1292 39.0979 22.0625 39.2875C23.9996 39.6814 25.9962 39.6814 27.9334 39.2875C31.6678 38.5124 34.9527 36.3113 37.0896 33.1521C38.1555 31.5744 38.9008 29.8026 39.2834 27.9375C39.3396 27.6562 39.3729 27.3687 39.4146 27.0833H45.8334L37.5 18.75L29.1667 27.0833Z" fill="#254E58"/>
</svg>
