<svg width="40" height="40" viewBox="0 0 40 40" fill="none" xmlns="http://www.w3.org/2000/svg">
<path d="M12.8783 10.5216L6.17831 3.82165L3.82165 6.17831L33.8216 36.1783L36.1783 33.8216L32.8116 30.455C35.3102 27.5459 36.678 23.8347 36.665 20C36.665 13.1816 32.545 7.57831 26.6666 4.99998V8.33331C30.645 10.6433 33.3316 15.0783 33.3316 20C33.3231 22.9609 32.3449 25.8376 30.5466 28.19L28.4033 26.0466C29.4066 24.2266 30 21.9833 30 20C30 17.0483 28.7083 13.5 26.6666 11.6666V24.31L23.3333 20.9766V3.55331L12.8783 10.5216ZM6.66665 28.3333H11.1616L23.3333 36.4466V30.2016L5.16998 12.0383C4.6198 12.3137 4.15681 12.7364 3.83255 13.2592C3.50829 13.7821 3.33547 14.3847 3.33331 15V25C3.33331 26.8383 4.82831 28.3333 6.66665 28.3333Z" fill="#254E58"/>
</svg>
