<svg width="20" height="20" viewBox="0 0 20 20" fill="none" xmlns="http://www.w3.org/2000/svg">
<path d="M9.99999 1.66667C5.40499 1.66667 1.66666 5.40501 1.66666 10C1.66666 14.595 5.40499 18.3333 9.99999 18.3333C14.595 18.3333 18.3333 14.595 18.3333 10C18.3333 5.40501 14.595 1.66667 9.99999 1.66667ZM9.99999 16.6667C6.32416 16.6667 3.33332 13.6758 3.33332 10C3.33332 6.32417 6.32416 3.33334 9.99999 3.33334C13.6758 3.33334 16.6667 6.32417 16.6667 10C16.6667 13.6758 13.6758 16.6667 9.99999 16.6667Z" fill="#254E58"/>
<path d="M10.8333 5L5.83334 10.8333H9.16668V15L14.1667 9.16667H10.8333V5Z" fill="#254E58"/>
</svg>
