<svg width="40" height="40" viewBox="0 0 40 40" fill="none" xmlns="http://www.w3.org/2000/svg">
<path d="M26.6667 35C32.545 32.4217 36.665 26.8183 36.665 20C36.665 13.1817 32.545 7.57833 26.6667 5V8.33333C30.645 10.6433 33.3317 15.0783 33.3317 20C33.3317 24.9217 30.645 29.3567 26.6667 31.6667V35Z" fill="#254E58"/>
<path d="M26.6666 11.6666V28.3333C28.7083 26.5 30 22.9516 30 20C30 17.0483 28.7083 13.5 26.6666 11.6666ZM6.66665 28.3333H11.1616L23.3333 36.4466V3.55331L11.1616 11.6666H6.66665C4.82831 11.6666 3.33331 13.1616 3.33331 15V25C3.33331 26.8383 4.82831 28.3333 6.66665 28.3333Z" fill="#254E58"/>
</svg>
